<mxfile host="app.diagrams.net" modified="2022-01-25T02:08:06.606Z" agent="5.0 (Windows NT 10.0; Win64; x64) AppleWebKit/537.36 (KHTML, like Gecko) Chrome/97.0.4692.99 Safari/537.36" etag="KKaC-5VbRdKnsCiNmBDI" version="16.2.7" type="github">
  <diagram id="C5RBs43oDa-KdzZeNtuy" name="Page-1">
    <mxGraphModel dx="719" dy="508" grid="1" gridSize="10" guides="1" tooltips="1" connect="1" arrows="1" fold="1" page="1" pageScale="1" pageWidth="827" pageHeight="1169" math="0" shadow="0">
      <root>
        <mxCell id="WIyWlLk6GJQsqaUBKTNV-0" />
        <mxCell id="WIyWlLk6GJQsqaUBKTNV-1" parent="WIyWlLk6GJQsqaUBKTNV-0" />
        <mxCell id="J_BU-mP6Q_C5gwyvmjtZ-0" value="" style="swimlane;startSize=0;" vertex="1" parent="WIyWlLk6GJQsqaUBKTNV-1">
          <mxGeometry x="150" y="130" width="380" height="610" as="geometry" />
        </mxCell>
        <mxCell id="J_BU-mP6Q_C5gwyvmjtZ-1" value="&lt;h2&gt;Coffee Shop Bot&lt;/h2&gt;" style="text;html=1;strokeColor=none;fillColor=none;align=center;verticalAlign=middle;whiteSpace=wrap;rounded=0;" vertex="1" parent="J_BU-mP6Q_C5gwyvmjtZ-0">
          <mxGeometry x="120" y="20" width="200" height="30" as="geometry" />
        </mxCell>
        <mxCell id="J_BU-mP6Q_C5gwyvmjtZ-10" value="Summon bot" style="ellipse;whiteSpace=wrap;html=1;" vertex="1" parent="J_BU-mP6Q_C5gwyvmjtZ-0">
          <mxGeometry x="60" y="90" width="90" height="50" as="geometry" />
        </mxCell>
        <mxCell id="J_BU-mP6Q_C5gwyvmjtZ-8" value="Actor" style="shape=umlActor;verticalLabelPosition=bottom;verticalAlign=top;html=1;outlineConnect=0;" vertex="1" parent="WIyWlLk6GJQsqaUBKTNV-1">
          <mxGeometry x="70" y="350" width="40" height="60" as="geometry" />
        </mxCell>
        <mxCell id="J_BU-mP6Q_C5gwyvmjtZ-11" value="" style="endArrow=classic;html=1;rounded=0;entryX=0;entryY=1;entryDx=0;entryDy=0;" edge="1" parent="WIyWlLk6GJQsqaUBKTNV-1" target="J_BU-mP6Q_C5gwyvmjtZ-10">
          <mxGeometry width="50" height="50" relative="1" as="geometry">
            <mxPoint x="120" y="370" as="sourcePoint" />
            <mxPoint x="130" y="280" as="targetPoint" />
          </mxGeometry>
        </mxCell>
      </root>
    </mxGraphModel>
  </diagram>
</mxfile>
